<!-- Generated by readme-aura https://github.com/collectioneur/readme-aura -->
<svg width="800" height="400" viewBox="0 0 800 400" xmlns="http://www.w3.org/2000/svg"><clipPath id="satori_cp-id"><path x="0" y="0" width="800" height="400" d="M20,0 h760 a20,20 0 0 1 20,20 v360 a20,20 0 0 1 -20,20 h-760 a20,20 0 0 1 -20,-20 v-360 a20,20 0 0 1 20,-20"/></clipPath><mask id="satori_om-id"><rect x="0" y="0" width="800" height="400" fill="#fff"/></mask><path x="0" y="0" width="800" height="400" fill="#08080d" d="M20,0 h760 a20,20 0 0 1 20,20 v360 a20,20 0 0 1 -20,20 h-760 a20,20 0 0 1 -20,-20 v-360 a20,20 0 0 1 20,-20"/><clipPath id="satori_cp-id-0" clip-path="url(#satori_cp-id)"><rect x="0" y="0" width="800" height="360"/></clipPath><mask id="satori_om-id-0"><rect x="0" y="0" width="800" height="360" fill="#fff" mask="url(#satori_om-id)"/></mask><svg x="0" y="0" width="800" height="360" preserveAspectRatio="none" clip-path="url(#satori_cp-id-0)" mask="url(#satori_om-id-0)"><defs><radialGradient id="hg1" cx="50%" cy="50%" r="50%"><stop offset="0%" stop-color="rgba(108,195,130,0.55)"></stop><stop offset="100%" stop-color="rgba(108,195,130,0)"></stop></radialGradient><radialGradient id="hg2" cx="50%" cy="50%" r="50%"><stop offset="0%" stop-color="rgba(230,100,115,0.5)"></stop><stop offset="100%" stop-color="rgba(230,100,115,0)"></stop></radialGradient><radialGradient id="hg3" cx="50%" cy="50%" r="50%"><stop offset="0%" stop-color="rgba(195,155,255,0.35)"></stop><stop offset="100%" stop-color="rgba(195,155,255,0)"></stop></radialGradient><radialGradient id="hg4" cx="50%" cy="50%" r="50%"><stop offset="0%" stop-color="rgba(255,195,110,0.28)"></stop><stop offset="100%" stop-color="rgba(255,195,110,0)"></stop></radialGradient><radialGradient id="hg5" cx="50%" cy="50%" r="50%"><stop offset="0%" stop-color="rgba(80,160,220,0.3)"></stop><stop offset="100%" stop-color="rgba(80,160,220,0)"></stop></radialGradient></defs><ellipse id="hero-o1" cx="110" cy="310" rx="260" ry="200" fill="url(#hg1)"></ellipse><ellipse id="hero-o2" cx="710" cy="70" rx="230" ry="190" fill="url(#hg2)"></ellipse><ellipse id="hero-o3" cx="620" cy="330" rx="200" ry="160" fill="url(#hg3)"></ellipse><ellipse id="hero-o4" cx="200" cy="55" rx="190" ry="150" fill="url(#hg4)"></ellipse><ellipse id="hero-o5" cx="400" cy="340" rx="170" ry="130" fill="url(#hg5)"></ellipse><circle id="hr1" cx="400" cy="178" r="52" fill="none" stroke="rgba(255,255,255,0.9)" stroke-width="0.7"></circle><circle id="hr2" cx="400" cy="178" r="92" fill="none" stroke="rgba(255,255,255,0.9)" stroke-width="0.7"></circle><circle id="hr3" cx="400" cy="178" r="138" fill="none" stroke="rgba(255,255,255,0.9)" stroke-width="0.7"></circle><circle id="hr4" cx="400" cy="178" r="192" fill="none" stroke="rgba(255,255,255,0.9)" stroke-width="0.7"></circle><circle id="hr5" cx="400" cy="178" r="256" fill="none" stroke="rgba(255,255,255,0.9)" stroke-width="0.7"></circle><g id="hero-dot"><circle cx="400" cy="126" r="2.5" fill="rgba(255,255,255,0.5)"></circle></g><style>

    @keyframes orb-a { 0%, 100% { transform: translate(0, 0); opacity: 0.6; } 50% { transform: translate(28px, -22px); opacity: 0.9; } }
    @keyframes orb-b { 0%, 100% { transform: translate(0, 0); opacity: 0.5; } 50% { transform: translate(-22px, 18px); opacity: 0.75; } }
    @keyframes orb-c { 0%, 100% { transform: translate(0, 0); opacity: 0.35; } 50% { transform: translate(16px, -28px); opacity: 0.6; } }
    @keyframes ring-blink { 0%, 100% { opacity: 0.06; } 50% { opacity: 0.18; } }
    @keyframes ring-blink-b { 0%, 100% { opacity: 0.04; } 50% { opacity: 0.12; } }
    @keyframes dot-spin { 0% { transform: rotate(0deg); } 100% { transform: rotate(360deg); } }
    #hero-o1 { animation: orb-a 9s ease-in-out infinite; }
    #hero-o2 { animation: orb-b 11s ease-in-out infinite 0.8s; }
    #hero-o3 { animation: orb-a 8s ease-in-out infinite 2s; }
    #hero-o4 { animation: orb-b 13s ease-in-out infinite 0.4s; }
    #hero-o5 { animation: orb-c 7s ease-in-out infinite 1.2s; }
    #hr1 { animation: ring-blink 8s ease-in-out infinite; }
    #hr2 { animation: ring-blink 8s ease-in-out infinite 1.4s; }
    #hr3 { animation: ring-blink-b 8s ease-in-out infinite 2.8s; }
    #hr4 { animation: ring-blink-b 8s ease-in-out infinite 4.2s; }
    #hr5 { animation: ring-blink-b 10s ease-in-out infinite 5.6s; }
    #hero-dot { animation: dot-spin 20s linear infinite; }
  
</style>
</svg><mask id="satori_om-id-0-0"><rect x="0" y="0" width="0" height="360" fill="#fff" mask="url(#satori_om-id)"/></mask><mask id="satori_om-id-0-0-0"><rect x="0" y="0" width="0" height="360" fill="#fff" mask="url(#satori_om-id)"/></mask><mask id="satori_om-id-0-0-0-0"><rect x="0" y="0" width="0" height="360" fill="#fff" mask="url(#satori_om-id)"/></mask><mask id="satori_om-id-0-0-0-1"><rect x="0" y="0" width="0" height="360" fill="#fff" mask="url(#satori_om-id)"/></mask><mask id="satori_om-id-0-0-1"><rect x="0" y="0" width="0" height="360" fill="#fff" mask="url(#satori_om-id)"/></mask><mask id="satori_om-id-0-0-1-0"><rect x="0" y="0" width="0" height="360" fill="#fff" mask="url(#satori_om-id)"/></mask><mask id="satori_om-id-0-0-1-1"><rect x="0" y="0" width="0" height="360" fill="#fff" mask="url(#satori_om-id)"/></mask><mask id="satori_om-id-0-0-2"><rect x="0" y="0" width="0" height="360" fill="#fff" mask="url(#satori_om-id)"/></mask><mask id="satori_om-id-0-0-2-0"><rect x="0" y="0" width="0" height="360" fill="#fff" mask="url(#satori_om-id)"/></mask><mask id="satori_om-id-0-0-2-1"><rect x="0" y="0" width="0" height="360" fill="#fff" mask="url(#satori_om-id)"/></mask><mask id="satori_om-id-0-0-3"><rect x="0" y="0" width="0" height="360" fill="#fff" mask="url(#satori_om-id)"/></mask><mask id="satori_om-id-0-0-3-0"><rect x="0" y="0" width="0" height="360" fill="#fff" mask="url(#satori_om-id)"/></mask><mask id="satori_om-id-0-0-3-1"><rect x="0" y="0" width="0" height="360" fill="#fff" mask="url(#satori_om-id)"/></mask><mask id="satori_om-id-0-0-4"><rect x="0" y="0" width="0" height="360" fill="#fff" mask="url(#satori_om-id)"/></mask><mask id="satori_om-id-0-0-4-0"><rect x="0" y="0" width="0" height="360" fill="#fff" mask="url(#satori_om-id)"/></mask><mask id="satori_om-id-0-0-4-1"><rect x="0" y="0" width="0" height="360" fill="#fff" mask="url(#satori_om-id)"/></mask><mask id="satori_om-id-0-1"><rect x="0" y="0" width="0" height="360" fill="#fff" mask="url(#satori_om-id)"/></mask><mask id="satori_om-id-0-2"><rect x="0" y="0" width="0" height="360" fill="#fff" mask="url(#satori_om-id)"/></mask><mask id="satori_om-id-0-3"><rect x="0" y="0" width="0" height="360" fill="#fff" mask="url(#satori_om-id)"/></mask><mask id="satori_om-id-0-4"><rect x="0" y="0" width="0" height="360" fill="#fff" mask="url(#satori_om-id)"/></mask><mask id="satori_om-id-0-5"><rect x="0" y="0" width="0" height="360" fill="#fff" mask="url(#satori_om-id)"/></mask><mask id="satori_om-id-0-6"><rect x="0" y="0" width="0" height="360" fill="#fff" mask="url(#satori_om-id)"/></mask><mask id="satori_om-id-0-7"><rect x="0" y="0" width="0" height="360" fill="#fff" mask="url(#satori_om-id)"/></mask><mask id="satori_om-id-0-8"><rect x="0" y="0" width="0" height="360" fill="#fff" mask="url(#satori_om-id)"/></mask><mask id="satori_om-id-0-9"><rect x="0" y="0" width="0" height="360" fill="#fff" mask="url(#satori_om-id)"/></mask><mask id="satori_om-id-0-10"><rect x="0" y="0" width="0" height="360" fill="#fff" mask="url(#satori_om-id)"/></mask><mask id="satori_om-id-0-11"><rect x="0" y="0" width="0" height="360" fill="#fff" mask="url(#satori_om-id)"/></mask><mask id="satori_om-id-0-11-0"><rect x="0" y="0" width="0" height="360" fill="#fff" mask="url(#satori_om-id)"/></mask><mask id="satori_om-id-1"><rect x="151" y="127" width="499" height="147" fill="#fff" mask="url(#satori_om-id)"/></mask><mask id="satori_om-id-1-0"><rect x="151" y="127" width="499" height="60" fill="#fff" mask="url(#satori_om-id)"/></mask><g mask="url(#satori_om-id)" clip-path="url(#satori_cp-id)"><path fill="#ffffff" d="M162.3 179L152.4 179L167.3 135.3L179.1 135.3L194.4 179L184.4 179L181.1 168.9L165.6 168.9L162.3 179ZM167.8 161.9L178.7 161.9L177.4 157.9Q176.2 153.9 174.9 149L174.9 149Q174.0 145.9 173.1 142.4L173.1 142.4Q172.2 145.9 171.5 149.1L171.5 149.1Q170.2 154.0 169.0 157.9L169.0 157.9L167.8 161.9ZM210.6 179.6L210.6 179.6Q206.6 179.6 203.6 178.5Q200.5 177.4 198.6 175.2Q196.6 173.1 196.1 170.0L196.1 170.0L204.3 168.6Q204.9 170.9 206.5 172.1Q208.1 173.2 210.8 173.2L210.8 173.2Q213.3 173.2 214.8 172.2Q216.2 171.3 216.2 169.8L216.2 169.8Q216.2 168.5 215.2 167.7Q214.2 166.9 212.0 166.5L212.0 166.5L206.4 165.3Q201.6 164.3 199.3 162.0Q196.9 159.7 196.9 156.0L196.9 156.0Q196.9 152.8 198.7 150.6Q200.4 148.3 203.5 147.1Q206.5 145.8 210.7 145.8L210.7 145.8Q214.6 145.8 217.4 146.9Q220.3 148.0 222.0 149.9Q223.8 151.9 224.4 154.6L224.4 154.6L216.6 155.9Q216.1 154.3 214.6 153.2Q213.2 152.1 210.8 152.1L210.8 152.1Q208.6 152.1 207.2 153.0Q205.7 154.0 205.7 155.5L205.7 155.5Q205.7 156.7 206.7 157.6Q207.6 158.4 209.9 158.9L209.9 158.9L215.8 160.0Q220.6 161.0 222.9 163.2Q225.2 165.4 225.2 168.9L225.2 168.9Q225.2 172.1 223.3 174.5Q221.5 176.9 218.2 178.3Q214.9 179.6 210.6 179.6ZM237.9 160.0L237.9 160.0L237.9 179L229.1 179L229.1 135.3L237.8 135.3L237.8 152.5Q239.0 149.8 241.0 148.1L241.0 148.1Q243.6 145.8 247.8 145.8L247.8 145.8Q251.2 145.8 253.7 147.3Q256.2 148.8 257.6 151.6Q259.0 154.3 259.0 158.2L259.0 158.2L259.0 179L250.2 179L250.2 159.7Q250.2 156.6 248.6 154.9Q247.1 153.2 244.3 153.2L244.3 153.2Q242.4 153.2 241.0 154.0Q239.5 154.8 238.7 156.3Q237.9 157.8 237.9 160.0ZM273.3 179L264.5 179L264.5 146.2L272.6 146.2L273.0 152.6Q273.7 150.8 274.7 149.5L274.7 149.5Q276.2 147.6 278.2 146.7Q280.1 145.7 282.3 145.7L282.3 145.7Q285.9 145.7 288.1 148.0L288.1 148.0Q289.8 149.8 290.8 153.1L290.8 153.1Q291.5 151.1 292.6 149.7L292.6 149.7Q294.3 147.7 296.5 146.7Q298.8 145.7 301.3 145.7L301.3 145.7Q304.3 145.7 306.7 147.1Q309.0 148.4 310.4 150.9Q311.8 153.3 311.8 156.9L311.8 156.9L311.8 179L303.0 179L303.0 158.6Q303.0 155.8 301.5 154.4Q300.0 153.1 297.8 153.1L297.8 153.1Q296.1 153.1 294.9 153.8Q293.7 154.5 293.0 155.8Q292.4 157.1 292.4 158.8L292.4 158.8L292.4 179L283.9 179L283.9 158.3Q283.9 155.9 282.4 154.5Q281.0 153.1 278.8 153.1L278.8 153.1Q277.2 153.1 276.0 153.8Q274.7 154.5 274.0 155.9Q273.3 157.2 273.3 159.2L273.3 159.2L273.3 179ZM326.0 179L317.3 179L317.3 146.2L326.0 146.2L326.0 179ZM321.7 142.0L321.7 142.0Q319.7 142.0 318.3 140.7Q316.8 139.3 316.8 137.5L316.8 137.5Q316.8 135.6 318.3 134.3Q319.7 132.9 321.7 132.9L321.7 132.9Q323.6 132.9 325.1 134.2Q326.5 135.6 326.5 137.5L326.5 137.5Q326.5 139.3 325.1 140.7Q323.6 142.0 321.7 142.0ZM341.7 146.2L347.8 146.2L347.8 153.0L341.7 153.0L341.7 169.4Q341.7 171.0 342.3 171.7Q343.0 172.5 344.6 172.5L344.6 172.5Q345.1 172.5 346.0 172.3Q347.0 172.2 347.4 172.1L347.4 172.1L348.7 178.7Q347.2 179.1 345.8 179.3Q344.3 179.5 343.0 179.5L343.0 179.5Q338.1 179.5 335.5 177.1Q332.9 174.7 332.9 170.2L332.9 170.2L332.9 153.0L328.4 153.0L328.4 146.2L332.9 146.2L332.9 138.5L341.7 138.5L341.7 146.2Z M372.8 179L363.9 179L363.9 135.3L372.8 135.3L372.8 147.3L372.7 157.2Q372.9 156.8 373.1 156.5L373.1 156.5Q374.4 154.4 376.0 152.4Q377.5 150.3 379.5 147.9L379.5 147.9L390.2 135.3L401.1 135.3L384.8 154.2L401.6 179L391.0 179L378.6 160.1L372.8 166.5L372.8 179ZM413.6 179L404.9 179L404.9 146.2L413.6 146.2L413.6 179ZM409.2 142.0L409.2 142.0Q407.3 142.0 405.8 140.7Q404.4 139.3 404.4 137.5L404.4 137.5Q404.4 135.6 405.8 134.3Q407.3 132.9 409.2 132.9L409.2 132.9Q411.2 132.9 412.7 134.2Q414.1 135.6 414.1 137.5L414.1 137.5Q414.1 139.3 412.7 140.7Q411.2 142.0 409.2 142.0ZM427.9 160.0L427.9 160.0L427.9 179L419.1 179L419.1 146.2L427.4 146.2L427.5 153.0Q428.8 149.9 430.9 148.1L430.9 148.1Q433.6 145.8 437.7 145.8L437.7 145.8Q441.1 145.8 443.6 147.3Q446.2 148.8 447.6 151.6Q449.0 154.3 449.0 158.2L449.0 158.2L449.0 179L440.2 179L440.2 159.7Q440.2 156.6 438.6 154.9Q437.0 153.2 434.3 153.2L434.3 153.2Q432.4 153.2 431.0 154.0Q429.5 154.8 428.7 156.3Q427.9 157.8 427.9 160.0ZM463.6 179.6L463.6 179.6Q460.5 179.6 458.0 178.5Q455.6 177.4 454.1 175.3Q452.7 173.1 452.7 169.8L452.7 169.8Q452.7 167.1 453.7 165.3Q454.7 163.4 456.5 162.3Q458.2 161.2 460.4 160.6Q462.6 160.0 465.1 159.8L465.1 159.8Q467.9 159.5 469.7 159.2Q471.4 159.0 472.2 158.4Q473.0 157.9 473.0 156.9L473.0 156.9L473.0 156.7Q473.0 155.3 472.4 154.3Q471.8 153.4 470.7 152.9Q469.5 152.3 467.9 152.3L467.9 152.3Q466.2 152.3 464.9 152.9Q463.7 153.4 462.9 154.2Q462.1 155.1 461.7 156.1L461.7 156.1L453.6 154.8Q454.5 151.9 456.5 149.9Q458.4 147.9 461.3 146.9Q464.3 145.8 467.9 145.8L467.9 145.8Q470.6 145.8 473.0 146.5Q475.5 147.1 477.5 148.4Q479.5 149.7 480.6 151.9Q481.8 154.0 481.8 156.9L481.8 156.9L481.8 179L473.5 179L473.5 174.5L473.2 174.5Q472.4 176.0 471.1 177.1Q469.8 178.3 467.9 179.0Q466.0 179.6 463.6 179.6ZM466.1 173.5L466.1 173.5Q468.2 173.5 469.7 172.6Q471.3 171.8 472.2 170.4Q473.1 169.0 473.1 167.3L473.1 167.3L473.1 163.7Q472.7 164.0 471.9 164.3Q471.1 164.5 470.1 164.7Q469.2 164.8 468.2 165.0Q467.3 165.1 466.6 165.2L466.6 165.2Q465.0 165.5 463.7 166.0Q462.5 166.5 461.8 167.4Q461.1 168.2 461.1 169.6L461.1 169.6Q461.1 170.9 461.8 171.7Q462.4 172.6 463.5 173.0Q464.7 173.5 466.1 173.5ZM496.1 179L487.3 179L487.3 146.2L495.8 146.2L495.8 152.0L496.1 152.0Q497.1 148.9 499.2 147.4Q501.3 145.8 504.1 145.8L504.1 145.8Q504.7 145.8 505.5 145.9Q506.3 146.0 506.9 146.1L506.9 146.1L506.9 154.0Q506.3 153.7 505.2 153.6Q504.1 153.5 503.1 153.5L503.1 153.5Q501.1 153.5 499.5 154.4Q497.9 155.2 497.0 156.8Q496.1 158.3 496.1 160.4L496.1 160.4L496.1 179ZM518.5 179L509.7 179L509.7 146.2L518.5 146.2L518.5 179ZM514.1 142.0L514.1 142.0Q512.1 142.0 510.7 140.7Q509.3 139.3 509.3 137.5L509.3 137.5Q509.3 135.6 510.7 134.3Q512.1 132.9 514.1 132.9L514.1 132.9Q516.1 132.9 517.5 134.2Q519.0 135.6 519.0 137.5L519.0 137.5Q519.0 139.3 517.5 140.7Q516.1 142.0 514.1 142.0ZM539.8 179L530.8 179L521.2 146.2L530.4 146.2L533.2 158.3Q534.0 161.6 534.8 165.4L534.8 165.4Q535.4 168.0 535.9 170.9L535.9 170.9Q536.4 168.1 537.0 165.5L537.0 165.5Q537.9 161.7 538.7 158.3L538.7 158.3L541.7 146.2L549.8 146.2L552.7 158.3Q553.5 161.7 554.4 165.5L554.4 165.5Q555.0 168.1 555.5 171.0L555.5 171.0Q556.0 168.1 556.6 165.5L556.6 165.5Q557.4 161.7 558.2 158.3L558.2 158.3L561.0 146.2L570.3 146.2L560.6 179L551.7 179L548.0 166.4Q547.5 164.5 547.0 162.2Q546.5 159.9 546.0 157.5L546.0 157.5Q545.8 156.9 545.7 156.4L545.7 156.4Q545.6 156.9 545.5 157.5L545.5 157.5Q545.0 159.9 544.4 162.2Q543.9 164.5 543.4 166.4L543.4 166.4L539.8 179ZM582.1 179.6L582.1 179.6Q579.0 179.6 576.6 178.5Q574.1 177.4 572.7 175.3Q571.2 173.1 571.2 169.8L571.2 169.8Q571.2 167.1 572.3 165.3Q573.3 163.4 575.0 162.3Q576.8 161.2 579.0 160.6Q581.2 160.0 583.6 159.8L583.6 159.8Q586.4 159.5 588.2 159.2Q589.9 159.0 590.7 158.4Q591.5 157.9 591.5 156.9L591.5 156.9L591.5 156.7Q591.5 155.3 591.0 154.3Q590.4 153.4 589.2 152.9Q588.1 152.3 586.4 152.3L586.4 152.3Q584.7 152.3 583.5 152.9Q582.2 153.4 581.4 154.2Q580.6 155.1 580.2 156.1L580.2 156.1L572.2 154.8Q573.0 151.9 575.0 149.9Q577.0 147.9 579.9 146.9Q582.8 145.8 586.4 145.8L586.4 145.8Q589.1 145.8 591.6 146.5Q594.1 147.1 596.0 148.4Q598.0 149.7 599.2 151.9Q600.3 154.0 600.3 156.9L600.3 156.9L600.3 179L592.0 179L592.0 174.5L591.7 174.5Q590.9 176.0 589.6 177.1Q588.3 178.3 586.4 179.0Q584.6 179.6 582.1 179.6ZM584.6 173.5L584.6 173.5Q586.7 173.5 588.3 172.6Q589.8 171.8 590.7 170.4Q591.6 169.0 591.6 167.3L591.6 167.3L591.6 163.7Q591.2 164.0 590.4 164.3Q589.6 164.5 588.7 164.7Q587.7 164.8 586.8 165.0Q585.8 165.1 585.1 165.2L585.1 165.2Q583.5 165.5 582.3 166.0Q581.0 166.5 580.4 167.4Q579.7 168.2 579.7 169.6L579.7 169.6Q579.7 170.9 580.3 171.7Q581.0 172.6 582.1 173.0Q583.2 173.5 584.6 173.5ZM605.8 135.3L614.6 135.3L614.6 179L605.8 179L605.8 135.3ZM629.2 179.6L629.2 179.6Q626.1 179.6 623.7 178.5Q621.2 177.4 619.8 175.3Q618.3 173.1 618.3 169.8L618.3 169.8Q618.3 167.1 619.3 165.3Q620.4 163.4 622.1 162.3Q623.8 161.2 626.1 160.6Q628.3 160.0 630.7 159.8L630.7 159.8Q633.5 159.5 635.3 159.2Q637.0 159.0 637.8 158.4Q638.6 157.9 638.6 156.9L638.6 156.9L638.6 156.7Q638.6 155.3 638.1 154.3Q637.5 153.4 636.3 152.9Q635.2 152.3 633.5 152.3L633.5 152.3Q631.8 152.3 630.6 152.9Q629.3 153.4 628.5 154.2Q627.7 155.1 627.3 156.1L627.3 156.1L619.3 154.8Q620.1 151.9 622.1 149.9Q624.0 147.9 627.0 146.9Q629.9 145.8 633.5 145.8L633.5 145.8Q636.2 145.8 638.7 146.5Q641.2 147.1 643.1 148.4Q645.1 149.7 646.3 151.9Q647.4 154.0 647.4 156.9L647.4 156.9L647.4 179L639.1 179L639.1 174.5L638.8 174.5Q638.0 176.0 636.7 177.1Q635.4 178.3 633.5 179.0Q631.7 179.6 629.2 179.6ZM631.7 173.5L631.7 173.5Q633.8 173.5 635.4 172.6Q636.9 171.8 637.8 170.4Q638.7 169.0 638.7 167.3L638.7 167.3L638.7 163.7Q638.3 164.0 637.5 164.3Q636.7 164.5 635.8 164.7Q634.8 164.8 633.9 165.0Q632.9 165.1 632.2 165.2L632.2 165.2Q630.6 165.5 629.4 166.0Q628.1 166.5 627.4 167.4Q626.8 168.2 626.8 169.6L626.8 169.6Q626.8 170.9 627.4 171.7Q628.1 172.6 629.2 173.0Q630.3 173.5 631.7 173.5Z "/></g><mask id="satori_om-id-1-1"><rect x="266" y="203" width="269" height="16" fill="#fff" mask="url(#satori_om-id)"/></mask><g mask="url(#satori_om-id)" clip-path="url(#satori_cp-id)"><path fill="rgba(255,255,255,0.4)" d="M270.1 216L270.1 216L267.1 216L267.1 206.5L270.2 206.5Q271.6 206.5 272.6 207.1Q273.6 207.7 274.1 208.7Q274.6 209.8 274.6 211.3L274.6 211.3Q274.6 212.7 274.1 213.8Q273.6 214.9 272.5 215.4Q271.5 216 270.1 216ZM268.3 207.6L268.3 214.9L270.0 214.9Q271.2 214.9 271.9 214.5Q272.7 214.1 273.1 213.2Q273.4 212.4 273.4 211.3L273.4 211.3Q273.4 210.1 273.1 209.3Q272.7 208.5 272.0 208.0Q271.2 207.6 270.1 207.6L270.1 207.6L268.3 207.6ZM287.3 216L281.5 216L281.5 206.5L287.3 206.5L287.3 207.6L282.7 207.6L282.7 210.7L287.0 210.7L287.0 211.8L282.7 211.8L282.7 214.9L287.3 214.9L287.3 216ZM297.4 216.2L297.4 216.2Q296.3 216.2 295.6 215.8Q294.8 215.5 294.4 214.9Q294.0 214.3 293.9 213.5L293.9 213.5L295.2 213.5Q295.2 214.1 295.5 214.4Q295.8 214.7 296.3 214.9Q296.8 215.1 297.4 215.1L297.4 215.1Q298.0 215.1 298.5 214.9Q299.0 214.7 299.3 214.3Q299.6 213.9 299.6 213.4L299.6 213.4Q299.6 212.9 299.4 212.7Q299.1 212.4 298.7 212.2Q298.3 212.0 297.8 211.9L297.8 211.9L296.6 211.5Q295.5 211.2 294.8 210.6Q294.2 210.0 294.2 209.1L294.2 209.1Q294.2 208.3 294.6 207.7Q295.1 207.1 295.8 206.7Q296.5 206.4 297.4 206.4L297.4 206.4Q298.4 206.4 299.1 206.7Q299.8 207.1 300.2 207.6Q300.6 208.2 300.7 208.9L300.7 208.9L299.5 208.9Q299.4 208.2 298.8 207.9Q298.3 207.5 297.4 207.5L297.4 207.5Q296.8 207.5 296.3 207.7Q295.9 207.9 295.6 208.2Q295.4 208.6 295.4 209.0L295.4 209.0Q295.4 209.5 295.7 209.8Q296.0 210.1 296.4 210.3Q296.8 210.5 297.2 210.5L297.2 210.5L298.1 210.8Q298.5 210.9 299.0 211.1Q299.4 211.3 299.8 211.6Q300.3 211.9 300.5 212.3Q300.8 212.8 300.8 213.4L300.8 213.4Q300.8 214.2 300.4 214.8Q300.0 215.4 299.2 215.8Q298.5 216.2 297.4 216.2ZM307.7 206.5L308.9 206.5L308.9 216L307.7 216L307.7 206.5ZM320.0 216.1L320.0 216.1Q318.8 216.1 317.8 215.5Q316.9 214.9 316.3 213.9Q315.8 212.8 315.8 211.3L315.8 211.3Q315.8 209.8 316.3 208.7Q316.9 207.6 317.8 207.0Q318.7 206.4 320.0 206.4L320.0 206.4Q320.7 206.4 321.4 206.6Q322.0 206.9 322.5 207.3Q323.0 207.7 323.4 208.3Q323.7 208.8 323.8 209.5L323.8 209.5L322.6 209.5Q322.5 209.0 322.2 208.7Q322.0 208.3 321.6 208.1Q321.3 207.8 320.9 207.7Q320.5 207.5 320.0 207.5L320.0 207.5Q319.1 207.5 318.5 208.0Q317.8 208.4 317.4 209.2Q317.0 210.1 317.0 211.3L317.0 211.3Q317.0 212.5 317.4 213.3Q317.8 214.1 318.5 214.6Q319.2 215.0 320.0 215.0L320.0 215.0Q320.8 215.0 321.4 214.7Q322.1 214.3 322.4 213.7L322.4 213.7Q322.7 213.1 322.7 212.3L322.7 212.3L320.3 212.3L320.3 211.2L323.9 211.2L323.9 212.3Q323.9 213.5 323.4 214.3Q322.9 215.2 322.0 215.7Q321.2 216.1 320.0 216.1ZM332.1 216L330.9 216L330.9 206.5L332.3 206.5L336.1 212.6Q336.3 212.8 336.5 213.2Q336.7 213.6 337.0 214.0L337.0 214.0Q337.1 214.3 337.2 214.6L337.2 214.6Q337.2 214.3 337.2 214.0L337.2 214.0Q337.2 213.5 337.2 213.1Q337.2 212.6 337.2 212.3L337.2 212.3L337.2 206.5L338.4 206.5L338.4 216L336.9 216L333.5 210.6Q333.3 210.2 333.0 209.8Q332.8 209.4 332.5 208.9L332.5 208.9Q332.3 208.5 332.0 208.0L332.0 208.0Q332.0 208.5 332.0 208.9L332.0 208.9Q332.1 209.5 332.1 209.9Q332.1 210.4 332.1 210.6L332.1 210.6L332.1 216Z M355.1 212.4L355.1 212.4Q354.7 212.4 354.4 212.1Q354.2 211.9 354.2 211.5L354.2 211.5Q354.2 211.2 354.4 210.9Q354.7 210.6 355.1 210.6L355.1 210.6Q355.4 210.6 355.7 210.9Q355.9 211.2 355.9 211.5L355.9 211.5Q355.9 211.9 355.7 212.1Q355.4 212.4 355.1 212.4Z M375.5 216.1L375.5 216.1Q374.3 216.1 373.4 215.5Q372.4 215.0 371.9 213.9Q371.4 212.8 371.4 211.3L371.4 211.3Q371.4 209.8 371.9 208.7Q372.4 207.6 373.4 207.0Q374.3 206.4 375.5 206.4L375.5 206.4Q376.3 206.4 376.9 206.6Q377.5 206.8 378.1 207.2Q378.6 207.6 378.9 208.2Q379.2 208.8 379.4 209.5L379.4 209.5L378.2 209.5Q378.1 209.0 377.8 208.7Q377.6 208.3 377.2 208.0Q376.9 207.8 376.4 207.7Q376.0 207.5 375.5 207.5L375.5 207.5Q374.7 207.5 374.0 208.0Q373.3 208.4 372.9 209.2Q372.5 210.1 372.5 211.3L372.5 211.3Q372.5 212.5 372.9 213.3Q373.3 214.2 374.0 214.6Q374.7 215.0 375.5 215.0L375.5 215.0Q376.0 215.0 376.4 214.9Q376.9 214.7 377.2 214.5Q377.6 214.2 377.8 213.9Q378.1 213.5 378.2 213.0L378.2 213.0L379.4 213.0Q379.2 213.7 378.9 214.3Q378.6 214.9 378.1 215.3Q377.5 215.7 376.9 215.9Q376.3 216.1 375.5 216.1ZM390.1 216.1L390.1 216.1Q388.8 216.1 387.9 215.5Q386.9 215.0 386.4 213.9Q385.8 212.8 385.8 211.3L385.8 211.3Q385.8 209.8 386.4 208.7Q386.9 207.6 387.9 207.0Q388.8 206.4 390.1 206.4L390.1 206.4Q391.3 206.4 392.2 207.0Q393.2 207.6 393.7 208.7Q394.2 209.8 394.2 211.3L394.2 211.3Q394.2 212.8 393.7 213.9Q393.2 215.0 392.2 215.5Q391.3 216.1 390.1 216.1ZM390.1 215.0L390.1 215.0Q390.9 215.0 391.6 214.6Q392.3 214.2 392.7 213.3Q393.1 212.5 393.1 211.3L393.1 211.3Q393.1 210.1 392.7 209.2Q392.3 208.4 391.6 208.0Q390.9 207.5 390.1 207.5L390.1 207.5Q389.2 207.5 388.5 208.0Q387.8 208.4 387.4 209.2Q387.0 210.1 387.0 211.3L387.0 211.3Q387.0 212.5 387.4 213.3Q387.8 214.1 388.5 214.6Q389.2 215.0 390.1 215.0ZM404.1 216L404.1 216L401.2 216L401.2 206.5L404.2 206.5Q405.6 206.5 406.6 207.1Q407.6 207.7 408.1 208.7Q408.6 209.8 408.6 211.3L408.6 211.3Q408.6 212.7 408.1 213.8Q407.6 214.9 406.6 215.4Q405.6 216 404.1 216ZM402.4 207.6L402.4 214.9L404.0 214.9Q405.2 214.9 405.9 214.5Q406.7 214.1 407.1 213.2Q407.5 212.4 407.5 211.3L407.5 211.3Q407.5 210.1 407.1 209.3Q406.7 208.5 406.0 208.0Q405.2 207.6 404.1 207.6L404.1 207.6L402.4 207.6ZM421.4 216L415.5 216L415.5 206.5L421.3 206.5L421.3 207.6L416.7 207.6L416.7 210.7L421.0 210.7L421.0 211.8L416.7 211.8L416.7 214.9L421.4 214.9L421.4 216Z M437.7 212.4L437.7 212.4Q437.4 212.4 437.1 212.1Q436.9 211.9 436.9 211.5L436.9 211.5Q436.9 211.2 437.1 210.9Q437.4 210.6 437.7 210.6L437.7 210.6Q438.1 210.6 438.3 210.9Q438.6 211.2 438.6 211.5L438.6 211.5Q438.6 211.9 438.3 212.1Q438.1 212.4 437.7 212.4Z M458.2 216.1L458.2 216.1Q457.0 216.1 456.1 215.5Q455.1 215.0 454.6 213.9Q454.0 212.8 454.0 211.3L454.0 211.3Q454.0 209.8 454.6 208.7Q455.1 207.6 456.1 207.0Q457.0 206.4 458.2 206.4L458.2 206.4Q459.0 206.4 459.6 206.6Q460.2 206.8 460.7 207.2Q461.2 207.6 461.6 208.2Q461.9 208.8 462.1 209.5L462.1 209.5L460.8 209.5Q460.7 209.0 460.5 208.7Q460.3 208.3 459.9 208.0Q459.6 207.8 459.1 207.7Q458.7 207.5 458.2 207.5L458.2 207.5Q457.4 207.5 456.7 208.0Q456.0 208.4 455.6 209.2Q455.2 210.1 455.2 211.3L455.2 211.3Q455.2 212.5 455.6 213.3Q456.0 214.2 456.7 214.6Q457.4 215.0 458.2 215.0L458.2 215.0Q458.7 215.0 459.1 214.9Q459.6 214.7 459.9 214.5Q460.3 214.2 460.5 213.9Q460.7 213.5 460.8 213.0L460.8 213.0L462.1 213.0Q461.9 213.7 461.6 214.3Q461.3 214.9 460.7 215.3Q460.2 215.7 459.6 215.9Q459.0 216.1 458.2 216.1ZM470.1 216L468.9 216L468.9 206.5L472.1 206.5Q473.2 206.5 474.0 206.9Q474.7 207.3 475.0 208.0Q475.4 208.6 475.4 209.5Q475.4 210.3 475.0 211.0Q474.7 211.6 474.0 212.0L474.0 212.0Q473.8 212.1 473.6 212.1L473.6 212.1L475.7 216L474.3 216L472.4 212.3Q472.3 212.3 472.2 212.3L472.2 212.3L470.1 212.3L470.1 216ZM470.1 207.6L470.1 211.3L472.1 211.3Q472.8 211.3 473.3 211.0Q473.8 210.8 474.0 210.4Q474.2 210.0 474.2 209.5L474.2 209.5Q474.2 208.9 474.0 208.5Q473.8 208.1 473.3 207.8Q472.8 207.6 472.1 207.6L472.1 207.6L470.1 207.6ZM488.1 216L482.3 216L482.3 206.5L488.0 206.5L488.0 207.6L483.5 207.6L483.5 210.7L487.7 210.7L487.7 211.8L483.5 211.8L483.5 214.9L488.1 214.9L488.1 216ZM495.6 216L494.3 216L497.7 206.5L499.1 206.5L502.6 216L501.3 216L500.4 213.4L496.5 213.4L495.6 216ZM496.8 212.3L500.0 212.3L499.3 210.4Q499.1 209.9 498.9 209.1L498.9 209.1Q498.7 208.4 498.4 207.5L498.4 207.5Q498.1 208.5 497.9 209.1L497.9 209.1Q497.7 209.9 497.5 210.4L497.5 210.4L496.8 212.3ZM511.5 207.6L508.5 207.6L508.5 206.5L515.7 206.5L515.7 207.6L512.7 207.6L512.7 216L511.5 216L511.5 207.6ZM528.3 216L522.4 216L522.4 206.5L528.2 206.5L528.2 207.6L523.7 207.6L523.7 210.7L527.9 210.7L527.9 211.8L523.7 211.8L523.7 214.9L528.3 214.9L528.3 216Z "/></g><mask id="satori_om-id-1-2"><rect x="256" y="249" width="290" height="25" fill="#fff" mask="url(#satori_om-id)"/></mask><defs><clipPath id="satori_bc-id-1-2-0" clip-path="url(#satori_cp-id)"><path x="256" y="249" width="103" height="25" d="M268.5,249 h78 a12.5,12.5 0 0 1 12.5,12.5 v0 a12.5,12.5 0 0 1 -12.5,12.5 h-78 a12.5,12.5 0 0 1 -12.5,-12.5 v0 a12.5,12.5 0 0 1 12.5,-12.5"/></clipPath></defs><mask id="satori_om-id-1-2-0"><rect x="257" y="250" width="101" height="23" fill="#fff" mask="url(#satori_om-id)"/><path width="103" height="25" fill="none" stroke="#000" stroke-width="2" d="M259.661,252.661 A12.5,12.5 0 0 1 268.5,249 h78 a12.5,12.5 0 0 1 12.5,12.5 v0 a12.5,12.5 0 0 1 -12.5,12.5 h-78 a12.5,12.5 0 0 1 -12.5,-12.5 v0 A12.5,12.5 0 0 1 259.661,252.661"/></mask><path x="256" y="249" width="103" height="25" fill="rgba(255,255,255,0.04)" d="M268.5,249 h78 a12.5,12.5 0 0 1 12.5,12.5 v0 a12.5,12.5 0 0 1 -12.5,12.5 h-78 a12.5,12.5 0 0 1 -12.5,-12.5 v0 a12.5,12.5 0 0 1 12.5,-12.5" clip-path="url(#satori_cp-id)" mask="url(#satori_om-id)"/><path width="103" height="25" clip-path="url(#satori_bc-id-1-2-0)" fill="none" stroke="rgba(255,255,255,0.09)" stroke-width="2" d="M259.661,252.661 A12.5,12.5 0 0 1 268.5,249 h78 a12.5,12.5 0 0 1 12.5,12.5 v0 a12.5,12.5 0 0 1 -12.5,12.5 h-78 a12.5,12.5 0 0 1 -12.5,-12.5 v0 A12.5,12.5 0 0 1 259.661,252.661"/><g mask="url(#satori_om-id)" clip-path="url(#satori_cp-id)"><path fill="rgba(255,255,255,0.55)" d="M274.8 266L273.8 266L273.8 260.0L274.8 260.0L274.8 261.1Q274.9 260.8 275.1 260.5L275.1 260.5Q275.4 260.2 275.7 260.0Q276.1 259.9 276.5 259.9L276.5 259.9Q277.1 259.9 277.5 260.3L277.5 260.3Q277.9 260.6 278.0 261.1L278.0 261.1Q278.1 260.8 278.3 260.6L278.3 260.6Q278.6 260.2 279.0 260.1Q279.4 259.9 279.9 259.9L279.9 259.9Q280.4 259.9 280.8 260.1Q281.3 260.3 281.5 260.8Q281.8 261.3 281.8 262.0L281.8 262.0L281.8 266L280.8 266L280.8 262.0Q280.8 261.3 280.5 261.0Q280.1 260.8 279.6 260.8L279.6 260.8Q279.2 260.8 278.9 260.9Q278.6 261.1 278.5 261.4Q278.3 261.7 278.3 262.1L278.3 262.1L278.3 266L277.3 266L277.3 261.9Q277.3 261.4 277.0 261.1Q276.7 260.8 276.2 260.8L276.2 260.8Q275.8 260.8 275.5 260.9Q275.2 261.1 275.0 261.4Q274.8 261.7 274.8 262.2L274.8 262.2L274.8 266ZM285.5 266L284.5 266L284.5 260.0L285.5 260.0L285.5 266ZM285.0 259.0L285.0 259.0Q284.7 259.0 284.5 258.8Q284.3 258.6 284.3 258.4L284.3 258.4Q284.3 258.1 284.5 257.9Q284.7 257.7 285.0 257.7L285.0 257.7Q285.3 257.7 285.5 257.9Q285.6 258.1 285.6 258.4L285.6 258.4Q285.6 258.6 285.5 258.8Q285.3 259.0 285.0 259.0ZM289.1 262.4L289.1 262.4L289.1 266L288.1 266L288.1 260.0L289.1 260.0L289.1 261.1Q289.3 260.5 289.7 260.3L289.7 260.3Q290.2 259.9 290.9 259.9L290.9 259.9Q291.5 259.9 292.0 260.2Q292.4 260.4 292.7 260.9Q293.0 261.4 293.0 262.2L293.0 262.2L293.0 266L292.0 266L292.0 262.3Q292.0 261.6 291.6 261.2Q291.3 260.8 290.6 260.8L290.6 260.8Q290.2 260.8 289.9 261.0Q289.5 261.2 289.3 261.5Q289.1 261.9 289.1 262.4ZM296.6 266L295.6 266L295.6 260.0L296.6 260.0L296.6 266ZM296.1 259.0L296.1 259.0Q295.9 259.0 295.7 258.8Q295.5 258.6 295.5 258.4L295.5 258.4Q295.5 258.1 295.7 257.9Q295.9 257.7 296.1 257.7L296.1 257.7Q296.4 257.7 296.6 257.9Q296.8 258.1 296.8 258.4L296.8 258.4Q296.8 258.6 296.6 258.8Q296.4 259.0 296.1 259.0ZM300.3 266L299.3 266L299.3 260.0L300.3 260.0L300.3 261.1Q300.4 260.8 300.6 260.5L300.6 260.5Q300.8 260.2 301.2 260.0Q301.6 259.9 301.9 259.9L301.9 259.9Q302.6 259.9 303.0 260.3L303.0 260.3Q303.3 260.6 303.5 261.1L303.5 261.1Q303.6 260.8 303.8 260.6L303.8 260.6Q304.1 260.2 304.5 260.1Q304.9 259.9 305.4 259.9L305.4 259.9Q305.9 259.9 306.3 260.1Q306.7 260.3 307.0 260.8Q307.3 261.3 307.3 262.0L307.3 262.0L307.3 266L306.3 266L306.3 262.0Q306.3 261.3 305.9 261.0Q305.6 260.8 305.1 260.8L305.1 260.8Q304.7 260.8 304.4 260.9Q304.1 261.1 303.9 261.4Q303.8 261.7 303.8 262.1L303.8 262.1L303.8 266L302.8 266L302.8 261.9Q302.8 261.4 302.5 261.1Q302.1 260.8 301.6 260.8L301.6 260.8Q301.3 260.8 301.0 260.9Q300.7 261.1 300.5 261.4Q300.3 261.7 300.3 262.2L300.3 262.2L300.3 266ZM311.6 266.1L311.6 266.1Q311.1 266.1 310.6 265.9Q310.1 265.7 309.9 265.3Q309.6 264.9 309.6 264.3L309.6 264.3Q309.6 263.8 309.8 263.5Q310.0 263.1 310.3 262.9Q310.7 262.8 311.1 262.7Q311.5 262.6 311.9 262.5L311.9 262.5Q312.5 262.5 312.8 262.4Q313.1 262.4 313.3 262.3Q313.5 262.2 313.5 262.0L313.5 262.0L313.5 261.9Q313.5 261.6 313.3 261.3Q313.2 261.0 312.9 260.9Q312.6 260.8 312.2 260.8L312.2 260.8Q311.8 260.8 311.5 260.9Q311.2 261.0 311.0 261.2Q310.8 261.4 310.7 261.6L310.7 261.6L309.8 261.3Q310.0 260.8 310.4 260.5Q310.8 260.2 311.2 260.0Q311.7 259.9 312.2 259.9L312.2 259.9Q312.5 259.9 312.9 260.0Q313.2 260.1 313.6 260.3Q314.0 260.5 314.2 260.9Q314.4 261.3 314.4 262.0L314.4 262.0L314.4 266L313.5 266L313.5 265.2L313.4 265.2Q313.3 265.4 313.1 265.6Q312.9 265.8 312.5 266.0Q312.1 266.1 311.6 266.1ZM311.8 265.3L311.8 265.3Q312.3 265.3 312.7 265.1Q313.1 264.9 313.3 264.5Q313.5 264.2 313.5 263.8L313.5 263.8L313.5 263.0Q313.4 263.1 313.2 263.1Q313.0 263.2 312.7 263.2Q312.5 263.3 312.3 263.3Q312.0 263.3 311.9 263.3L311.9 263.3Q311.5 263.4 311.2 263.5Q310.9 263.6 310.7 263.8Q310.6 264.0 310.6 264.3L310.6 264.3Q310.6 264.7 310.7 264.9Q310.9 265.1 311.2 265.2Q311.4 265.3 311.8 265.3ZM317.1 258.0L318.1 258.0L318.1 266L317.1 266L317.1 258.0ZM321.8 266L320.8 266L320.8 260.0L321.8 260.0L321.8 266ZM321.3 259.0L321.3 259.0Q321.0 259.0 320.8 258.8Q320.6 258.6 320.6 258.4L320.6 258.4Q320.6 258.1 320.8 257.9Q321.0 257.7 321.3 257.7L321.3 257.7Q321.6 257.7 321.8 257.9Q322.0 258.1 322.0 258.4L322.0 258.4Q322.0 258.6 321.8 258.8Q321.6 259.0 321.3 259.0ZM326.5 266.1L326.5 266.1Q325.9 266.1 325.4 265.9Q324.9 265.8 324.6 265.4Q324.3 265.1 324.2 264.5L324.2 264.5L325.1 264.3Q325.2 264.8 325.6 265.0Q325.9 265.3 326.5 265.3L326.5 265.3Q327.1 265.3 327.5 265.0Q327.9 264.7 327.9 264.4L327.9 264.4Q327.9 264.1 327.6 263.9Q327.4 263.6 327.0 263.5L327.0 263.5L326.0 263.3Q325.2 263.1 324.8 262.7Q324.4 262.3 324.4 261.7L324.4 261.7Q324.4 261.2 324.7 260.8Q324.9 260.4 325.4 260.1Q326.0 259.9 326.6 259.9L326.6 259.9Q327.2 259.9 327.6 260.1Q328.1 260.3 328.3 260.6Q328.6 260.9 328.7 261.4L328.7 261.4L327.9 261.6Q327.8 261.3 327.5 261.0Q327.2 260.7 326.6 260.7L326.6 260.7Q326.1 260.7 325.7 261.0Q325.3 261.2 325.3 261.6L325.3 261.6Q325.3 261.9 325.6 262.1Q325.8 262.3 326.4 262.5L326.4 262.5L327.3 262.7Q328.1 262.9 328.5 263.3Q328.9 263.7 328.9 264.3L328.9 264.3Q328.9 264.8 328.6 265.2Q328.3 265.7 327.7 265.9Q327.2 266.1 326.5 266.1ZM332.2 266L331.3 266L331.3 260.0L332.2 260.0L332.2 261.1Q332.3 260.8 332.5 260.5L332.5 260.5Q332.8 260.2 333.1 260.0Q333.5 259.9 333.9 259.9L333.9 259.9Q334.5 259.9 334.9 260.3L334.9 260.3Q335.3 260.6 335.4 261.1L335.4 261.1Q335.5 260.8 335.7 260.6L335.7 260.6Q336.0 260.2 336.4 260.1Q336.8 259.9 337.3 259.9L337.3 259.9Q337.8 259.9 338.3 260.1Q338.7 260.3 338.9 260.8Q339.2 261.3 339.2 262.0L339.2 262.0L339.2 266L338.2 266L338.2 262.0Q338.2 261.3 337.9 261.0Q337.5 260.8 337.0 260.8L337.0 260.8Q336.6 260.8 336.3 260.9Q336.0 261.1 335.9 261.4Q335.7 261.7 335.7 262.1L335.7 262.1L335.7 266L334.7 266L334.7 261.9Q334.7 261.4 334.4 261.1Q334.1 260.8 333.6 260.8L333.6 260.8Q333.2 260.8 332.9 260.9Q332.6 261.1 332.4 261.4Q332.2 261.7 332.2 262.2L332.2 262.2L332.2 266Z "/></g><defs><clipPath id="satori_bc-id-1-2-1" clip-path="url(#satori_cp-id)"><path x="367" y="249" width="111" height="25" d="M379.5,249 h86 a12.5,12.5 0 0 1 12.5,12.5 v0 a12.5,12.5 0 0 1 -12.5,12.5 h-86 a12.5,12.5 0 0 1 -12.5,-12.5 v0 a12.5,12.5 0 0 1 12.5,-12.5"/></clipPath></defs><mask id="satori_om-id-1-2-1"><rect x="368" y="250" width="109" height="23" fill="#fff" mask="url(#satori_om-id)"/><path width="111" height="25" fill="none" stroke="#000" stroke-width="2" d="M370.661,252.661 A12.5,12.5 0 0 1 379.5,249 h86 a12.5,12.5 0 0 1 12.5,12.5 v0 a12.5,12.5 0 0 1 -12.5,12.5 h-86 a12.5,12.5 0 0 1 -12.5,-12.5 v0 A12.5,12.5 0 0 1 370.661,252.661"/></mask><path x="367" y="249" width="111" height="25" fill="rgba(255,255,255,0.04)" d="M379.5,249 h86 a12.5,12.5 0 0 1 12.5,12.5 v0 a12.5,12.5 0 0 1 -12.5,12.5 h-86 a12.5,12.5 0 0 1 -12.5,-12.5 v0 a12.5,12.5 0 0 1 12.5,-12.5" clip-path="url(#satori_cp-id)" mask="url(#satori_om-id)"/><path width="111" height="25" clip-path="url(#satori_bc-id-1-2-1)" fill="none" stroke="rgba(255,255,255,0.09)" stroke-width="2" d="M370.661,252.661 A12.5,12.5 0 0 1 379.5,249 h86 a12.5,12.5 0 0 1 12.5,12.5 v0 a12.5,12.5 0 0 1 -12.5,12.5 h-86 a12.5,12.5 0 0 1 -12.5,-12.5 v0 A12.5,12.5 0 0 1 370.661,252.661"/><g mask="url(#satori_om-id)" clip-path="url(#satori_cp-id)"><path fill="rgba(255,255,255,0.55)" d="M387.3 266.1L387.3 266.1Q386.5 266.1 385.9 265.7Q385.2 265.4 384.9 264.7Q384.6 264.0 384.6 263.0L384.6 263.0Q384.6 262.1 384.9 261.4Q385.2 260.7 385.9 260.3Q386.5 259.9 387.3 259.9L387.3 259.9Q388.1 259.9 388.7 260.3Q389.3 260.7 389.7 261.4Q390.0 262.1 390.0 263.0L390.0 263.0Q390.0 264.0 389.7 264.7Q389.3 265.4 388.7 265.7Q388.1 266.1 387.3 266.1ZM387.3 265.3L387.3 265.3Q387.9 265.3 388.3 265.0Q388.7 264.6 388.9 264.1Q389.1 263.6 389.1 263.0L389.1 263.0Q389.1 262.4 388.9 261.9Q388.7 261.4 388.3 261.1Q387.9 260.8 387.3 260.8L387.3 260.8Q386.7 260.8 386.3 261.1Q385.9 261.4 385.7 261.9Q385.5 262.4 385.5 263.0L385.5 263.0Q385.5 263.6 385.7 264.1Q385.9 264.6 386.3 265.0Q386.7 265.3 387.3 265.3ZM393.4 268.2L392.4 268.2L392.4 260.0L393.4 260.0L393.4 261.0L393.5 261.0Q393.6 260.8 393.8 260.6Q394.0 260.3 394.3 260.1Q394.6 259.9 395.2 259.9L395.2 259.9Q396.0 259.9 396.6 260.3Q397.1 260.7 397.4 261.4Q397.8 262.1 397.8 263.0L397.8 263.0Q397.8 264.0 397.5 264.7Q397.1 265.4 396.6 265.7Q396.0 266.1 395.2 266.1L395.2 266.1Q394.7 266.1 394.3 265.9Q394.0 265.7 393.8 265.5Q393.6 265.2 393.5 265.1L393.5 265.1L393.4 265.1L393.4 268.2ZM395.1 265.3L395.1 265.3Q395.7 265.3 396.0 265.0Q396.4 264.7 396.6 264.1Q396.8 263.6 396.8 263.0L396.8 263.0Q396.8 262.4 396.6 261.9Q396.4 261.4 396.0 261.1Q395.7 260.8 395.1 260.8L395.1 260.8Q394.5 260.8 394.2 261.1Q393.8 261.3 393.6 261.8Q393.4 262.3 393.4 263.0L393.4 263.0Q393.4 263.7 393.6 264.2Q393.8 264.7 394.2 265.0Q394.5 265.3 395.1 265.3ZM402.7 266.1L402.7 266.1Q401.8 266.1 401.2 265.7Q400.6 265.4 400.2 264.7Q399.9 264.0 399.9 263.0Q399.9 262.1 400.2 261.4Q400.6 260.7 401.2 260.3Q401.8 259.9 402.6 259.9L402.6 259.9Q403.1 259.9 403.5 260.1Q404.0 260.2 404.4 260.6Q404.8 260.9 405.0 261.5Q405.2 262.1 405.2 262.9L405.2 262.9L405.2 263.3L400.9 263.3Q400.9 263.9 401.1 264.3L401.1 264.3Q401.3 264.8 401.7 265.0Q402.2 265.3 402.7 265.3L402.7 265.3Q403.1 265.3 403.4 265.2Q403.6 265.1 403.9 264.9Q404.1 264.7 404.2 264.3L404.2 264.3L405.1 264.6Q405.0 265.1 404.6 265.4Q404.3 265.7 403.8 265.9Q403.3 266.1 402.7 266.1ZM400.9 262.5L400.9 262.5L404.2 262.5Q404.2 262.1 404.1 261.8L404.1 261.8Q403.9 261.3 403.5 261.0Q403.1 260.8 402.6 260.8Q402.0 260.8 401.7 261.0Q401.3 261.3 401.1 261.7L401.1 261.7Q400.9 262.1 400.9 262.5ZM408.6 262.4L408.6 262.4L408.6 266L407.6 266L407.6 260.0L408.5 260.0L408.5 261.1Q408.8 260.5 409.2 260.3L409.2 260.3Q409.7 259.9 410.4 259.9L410.4 259.9Q411.0 259.9 411.4 260.2Q411.9 260.4 412.1 260.9Q412.4 261.4 412.4 262.2L412.4 262.2L412.4 266L411.4 266L411.4 262.3Q411.4 261.6 411.1 261.2Q410.7 260.8 410.1 260.8L410.1 260.8Q409.6 260.8 409.3 261.0Q409.0 261.2 408.8 261.5Q408.6 261.9 408.6 262.4Z M421.2 266.1L421.2 266.1Q420.6 266.1 420.1 265.9Q419.6 265.8 419.3 265.4Q419.0 265.1 418.9 264.5L418.9 264.5L419.8 264.3Q420.0 264.8 420.3 265.0Q420.7 265.3 421.2 265.3L421.2 265.3Q421.8 265.3 422.2 265.0Q422.6 264.7 422.6 264.4L422.6 264.4Q422.6 264.1 422.4 263.9Q422.2 263.6 421.7 263.5L421.7 263.5L420.7 263.3Q419.9 263.1 419.5 262.7Q419.1 262.3 419.1 261.7L419.1 261.7Q419.1 261.2 419.4 260.8Q419.7 260.4 420.2 260.1Q420.7 259.9 421.3 259.9L421.3 259.9Q421.9 259.9 422.4 260.1Q422.8 260.3 423.1 260.6Q423.3 260.9 423.5 261.4L423.5 261.4L422.6 261.6Q422.5 261.3 422.2 261.0Q421.9 260.7 421.3 260.7L421.3 260.7Q420.8 260.7 420.4 261.0Q420.1 261.2 420.1 261.6L420.1 261.6Q420.1 261.9 420.3 262.1Q420.6 262.3 421.1 262.5L421.1 262.5L422.0 262.7Q422.8 262.9 423.2 263.3Q423.6 263.7 423.6 264.3L423.6 264.3Q423.6 264.8 423.3 265.2Q423.0 265.7 422.5 265.9Q421.9 266.1 421.2 266.1ZM428.4 266.1L428.4 266.1Q427.6 266.1 427.0 265.7Q426.4 265.4 426.0 264.7Q425.7 264.0 425.7 263.0L425.7 263.0Q425.7 262.1 426.0 261.4Q426.4 260.7 427.0 260.3Q427.6 259.9 428.4 259.9L428.4 259.9Q429.3 259.9 429.9 260.3Q430.5 260.7 430.8 261.4Q431.2 262.1 431.2 263.0L431.2 263.0Q431.2 264.0 430.8 264.7Q430.5 265.4 429.9 265.7Q429.3 266.1 428.4 266.1ZM428.4 265.3L428.4 265.3Q429.0 265.3 429.4 265.0Q429.8 264.6 430.0 264.1Q430.2 263.6 430.2 263.0L430.2 263.0Q430.2 262.4 430.0 261.9Q429.8 261.4 429.4 261.1Q429.0 260.8 428.4 260.8L428.4 260.8Q427.8 260.8 427.4 261.1Q427.1 261.4 426.9 261.9Q426.7 262.4 426.7 263.0L426.7 263.0Q426.7 263.6 426.9 264.1Q427.1 264.6 427.4 265.0Q427.8 265.3 428.4 265.3ZM435.6 266.1L435.6 266.1Q435.0 266.1 434.6 265.8Q434.1 265.6 433.8 265.1Q433.6 264.6 433.6 263.8L433.6 263.8L433.6 260.0L434.6 260.0L434.6 263.7Q434.6 264.4 434.9 264.8Q435.3 265.2 435.9 265.2L435.9 265.2Q436.3 265.2 436.7 265.0Q437.0 264.8 437.2 264.5Q437.4 264.1 437.4 263.6L437.4 263.6L437.4 260.0L438.4 260.0L438.4 266L437.5 266L437.5 264.9Q437.2 265.5 436.8 265.7L436.8 265.7Q436.3 266.1 435.6 266.1ZM442.1 266L441.1 266L441.1 260.0L442.0 260.0L442.0 260.9L442.1 260.9Q442.3 260.5 442.7 260.2Q443.1 259.9 443.6 259.9L443.6 259.9Q443.8 259.9 443.9 259.9Q444.1 259.9 444.1 259.9L444.1 259.9L444.1 260.9Q444.1 260.9 443.9 260.9Q443.8 260.8 443.6 260.8L443.6 260.8Q443.1 260.8 442.8 261.0Q442.4 261.2 442.3 261.5Q442.1 261.8 442.1 262.2L442.1 262.2L442.1 266ZM448.7 266.1L448.7 266.1Q447.9 266.1 447.2 265.7Q446.6 265.4 446.3 264.7Q445.9 264.0 445.9 263.0L445.9 263.0Q445.9 262.1 446.3 261.4Q446.6 260.7 447.2 260.3Q447.9 259.9 448.7 259.9L448.7 259.9Q449.1 259.9 449.5 260.0Q449.9 260.1 450.2 260.4Q450.5 260.6 450.8 260.9Q451.0 261.2 451.1 261.6L451.1 261.6L450.2 261.8Q450.1 261.6 450.0 261.4Q449.8 261.2 449.7 261.1Q449.5 260.9 449.2 260.9Q449.0 260.8 448.7 260.8L448.7 260.8Q448.1 260.8 447.7 261.1Q447.3 261.4 447.1 261.9Q446.9 262.4 446.9 263.0L446.9 263.0Q446.9 263.6 447.1 264.1Q447.3 264.6 447.7 265.0Q448.1 265.3 448.7 265.3L448.7 265.3Q449.0 265.3 449.2 265.2Q449.5 265.1 449.7 265.0Q449.9 264.8 450.0 264.6Q450.1 264.4 450.2 264.2L450.2 264.2L451.1 264.4Q451.0 264.8 450.8 265.1Q450.5 265.5 450.2 265.7Q449.9 265.9 449.5 266.0Q449.1 266.1 448.7 266.1ZM456.0 266.1L456.0 266.1Q455.2 266.1 454.5 265.7Q453.9 265.4 453.6 264.7Q453.2 264.0 453.2 263.0Q453.2 262.1 453.6 261.4Q453.9 260.7 454.5 260.3Q455.1 259.9 455.9 259.9L455.9 259.9Q456.4 259.9 456.9 260.1Q457.3 260.2 457.7 260.6Q458.1 260.9 458.3 261.5Q458.5 262.1 458.5 262.9L458.5 262.9L458.5 263.3L454.2 263.3Q454.2 263.9 454.4 264.3L454.4 264.3Q454.7 264.8 455.1 265.0Q455.5 265.3 456.0 265.3L456.0 265.3Q456.4 265.3 456.7 265.2Q457.0 265.1 457.2 264.9Q457.4 264.7 457.5 264.3L457.5 264.3L458.4 264.6Q458.3 265.1 458.0 265.4Q457.6 265.7 457.2 265.9Q456.7 266.1 456.0 266.1ZM454.2 262.5L454.2 262.5L457.6 262.5Q457.5 262.1 457.4 261.8L457.4 261.8Q457.2 261.3 456.8 261.0Q456.5 260.8 455.9 260.8Q455.4 260.8 455.0 261.0Q454.6 261.3 454.4 261.7L454.4 261.7Q454.2 262.1 454.2 262.5Z "/></g><defs><clipPath id="satori_bc-id-1-2-2" clip-path="url(#satori_cp-id)"><path x="486" y="249" width="60" height="25" d="M498.5,249 h35 a12.5,12.5 0 0 1 12.5,12.5 v0 a12.5,12.5 0 0 1 -12.5,12.5 h-35 a12.5,12.5 0 0 1 -12.5,-12.5 v0 a12.5,12.5 0 0 1 12.5,-12.5"/></clipPath></defs><mask id="satori_om-id-1-2-2"><rect x="487" y="250" width="58" height="23" fill="#fff" mask="url(#satori_om-id)"/><path width="60" height="25" fill="none" stroke="#000" stroke-width="2" d="M489.661,252.661 A12.5,12.5 0 0 1 498.5,249 h35 a12.5,12.5 0 0 1 12.5,12.5 v0 a12.5,12.5 0 0 1 -12.5,12.5 h-35 a12.5,12.5 0 0 1 -12.5,-12.5 v0 A12.5,12.5 0 0 1 489.661,252.661"/></mask><path x="486" y="249" width="60" height="25" fill="rgba(255,255,255,0.04)" d="M498.5,249 h35 a12.5,12.5 0 0 1 12.5,12.5 v0 a12.5,12.5 0 0 1 -12.5,12.5 h-35 a12.5,12.5 0 0 1 -12.5,-12.5 v0 a12.5,12.5 0 0 1 12.5,-12.5" clip-path="url(#satori_cp-id)" mask="url(#satori_om-id)"/><path width="60" height="25" clip-path="url(#satori_bc-id-1-2-2)" fill="none" stroke="rgba(255,255,255,0.09)" stroke-width="2" d="M489.661,252.661 A12.5,12.5 0 0 1 498.5,249 h35 a12.5,12.5 0 0 1 12.5,12.5 v0 a12.5,12.5 0 0 1 -12.5,12.5 h-35 a12.5,12.5 0 0 1 -12.5,-12.5 v0 A12.5,12.5 0 0 1 489.661,252.661"/><g mask="url(#satori_om-id)" clip-path="url(#satori_cp-id)"><path fill="rgba(255,255,255,0.55)" d="M506.2 266L505.2 266L503.4 260.0L504.4 260.0L505.1 262.6Q505.3 263.2 505.5 263.8L505.5 263.8Q505.6 264.3 505.7 265.0L505.7 265.0Q505.8 264.4 506.0 263.9L506.0 263.9Q506.1 263.2 506.3 262.6L506.3 262.6L507.0 260.0L508.0 260.0L508.7 262.6Q508.9 263.2 509.1 263.8L509.1 263.8Q509.2 264.4 509.3 264.9L509.3 264.9Q509.4 264.4 509.5 263.9L509.5 263.9Q509.7 263.2 509.9 262.6L509.9 262.6L510.6 260.0L511.6 260.0L509.8 266L508.8 266L508.1 263.3Q507.9 262.9 507.8 262.4Q507.7 262.0 507.6 261.6L507.6 261.6Q507.6 261.3 507.5 261.1L507.5 261.1Q507.4 261.3 507.4 261.6L507.4 261.6Q507.3 262.0 507.2 262.4Q507.1 262.9 506.9 263.3L506.9 263.3L506.2 266ZM516.4 266.1L516.4 266.1Q515.5 266.1 514.9 265.7Q514.2 265.4 513.9 264.7Q513.6 264.0 513.6 263.0Q513.6 262.1 513.9 261.4Q514.2 260.7 514.8 260.3Q515.4 259.9 516.3 259.9L516.3 259.9Q516.7 259.9 517.2 260.1Q517.7 260.2 518.0 260.6Q518.4 260.9 518.7 261.5Q518.9 262.1 518.9 262.9L518.9 262.9L518.9 263.3L514.5 263.3Q514.6 263.9 514.8 264.3L514.8 264.3Q515 264.8 515.4 265.0Q515.8 265.3 516.4 265.3L516.4 265.3Q516.7 265.3 517.0 265.2Q517.3 265.1 517.5 264.9Q517.7 264.7 517.8 264.3L517.8 264.3L518.8 264.6Q518.6 265.1 518.3 265.4Q518.0 265.7 517.5 265.9Q517.0 266.1 516.4 266.1ZM514.5 262.5L514.5 262.5L517.9 262.5Q517.9 262.1 517.7 261.8L517.7 261.8Q517.5 261.3 517.2 261.0Q516.8 260.8 516.3 260.8Q515.7 260.8 515.3 261.0Q514.9 261.3 514.7 261.7L514.7 261.7Q514.6 262.1 514.5 262.5ZM524.1 266.1L524.1 266.1Q523.5 266.1 523.1 265.9Q522.8 265.7 522.6 265.5Q522.4 265.2 522.3 265.1L522.3 265.1L522.2 265.1L522.2 266L521.3 266L521.3 258.0L522.2 258.0L522.2 261.0L522.3 261.0Q522.4 260.8 522.6 260.6Q522.8 260.3 523.1 260.1Q523.5 259.9 524.0 259.9L524.0 259.9Q524.8 259.9 525.4 260.3Q525.9 260.7 526.3 261.4Q526.6 262.1 526.6 263.0L526.6 263.0Q526.6 264.0 526.3 264.7Q525.9 265.4 525.4 265.7Q524.8 266.1 524.1 266.1ZM523.9 265.3L523.9 265.3Q524.5 265.3 524.8 265.0Q525.2 264.7 525.4 264.1Q525.6 263.6 525.6 263.0L525.6 263.0Q525.6 262.4 525.4 261.9Q525.2 261.4 524.9 261.1Q524.5 260.8 523.9 260.8L523.9 260.8Q523.4 260.8 523.0 261.1Q522.6 261.3 522.4 261.8Q522.2 262.3 522.2 263.0L522.2 263.0Q522.2 263.7 522.4 264.2Q522.6 264.7 523.0 265.0Q523.4 265.3 523.9 265.3Z "/></g></svg>